<svg width="222" height="218" viewBox="0 0 222 218" fill="none" xmlns="http://www.w3.org/2000/svg">
<g filter="url(#filter0_dddd_7_7)">
<rect x="10" y="9" width="192" height="192" rx="10" fill="black"/>
</g>
<g filter="url(#filter1_i_7_7)">
<path d="M76.4992 111.48V102H100.979V111.48H76.4992ZM90.0592 126.48V102.36H100.979V126.48H90.0592ZM53.6992 
126.48V82.92H64.6192V126.48H53.6992ZM53.6992 82.92C53.6992 78.52 54.6992 74.64 56.6992 71.28C58.6992 67.84 61.4992 65.2 65.0992 
63.36C68.6992 61.44 72.8192 60.48 77.4592 60.48V69.96C73.4592 69.96 70.2992 71.08 67.9792 73.32C65.7392 75.56 64.6192 78.76 64.6192 
82.92H53.6992ZM53.6992 126.36H64.6192C64.6192 130.52 65.7392 133.76 67.9792 136.08C70.2992 138.32 73.4592 139.44 77.4592 
139.44V148.92C72.8192 148.92 68.6992 147.96 65.0992 146.04C61.4992 144.12 58.6992 141.48 56.6992 138.12C54.6992 134.76 53.6992 130.84 
53.6992 126.36ZM91.7392 86.04C91.2592 81 89.7392 77.08 87.1792 74.28C84.6992 71.4 81.4192 69.96 77.3392 69.96V60.48C84.1392 60.48 89.6592 
62.56 93.8992 66.72C98.2192 70.88 100.819 76.64 101.699 84L91.7392 86.04ZM100.979 126.36C100.979 130.84 99.9792 134.76 97.9792 
138.12C95.9792 141.48 93.1792 144.12 89.5792 146.04C86.0592 147.96 81.9792 148.92 77.3392 148.92V139.44C81.3392 139.44 84.4592 138.32 
86.6992 136.08C88.9392 133.76 90.0592 130.52 90.0592 126.36H100.979Z" fill="#D3D3D3"/>
<path d="M113.085 137.52L148.005 71.88H159.525L124.725 137.52H113.085ZM113.085 147V137.52H159.525V147H113.085ZM113.085 
71.88V62.4H159.525V71.88H113.085Z" fill="#D3D3D3"/>
</g>
<defs>
<filter id="filter0_dddd_7_7" x="0" y="0" width="222" height="218" filterUnits="userSpaceOnUse" color-interpolation-filters="sRGB">
<feFlood flood-opacity="0" result="BackgroundImageFix"/>
<feColorMatrix in="SourceAlpha" type="matrix" values="0 0 0 0 0 0 0 0 0 0 0 0 0 0 0 0 0 0 127 0" result="hardAlpha"/>
<feOffset dx="-4" dy="-3"/>
<feGaussianBlur stdDeviation="3"/>
<feComposite in2="hardAlpha" operator="out"/>
<feColorMatrix type="matrix" values="0 0 0 0 1 0 0 0 0 1 0 0 0 0 1 0 0 0 1 0"/>
<feBlend mode="normal" in2="BackgroundImageFix" result="effect1_dropShadow_7_7"/>
<feColorMatrix in="SourceAlpha" type="matrix" values="0 0 0 0 0 0 0 0 0 0 0 0 0 0 0 0 0 0 127 0" result="hardAlpha"/>
<feOffset dx="11" dy="8"/>
<feGaussianBlur stdDeviation="4.5"/>
<feComposite in2="hardAlpha" operator="out"/>
<feColorMatrix type="matrix" values="0 0 0 0 0 0 0 0 0 0 0 0 0 0 0 0 0 0 0.25 0"/>
<feBlend mode="normal" in2="effect1_dropShadow_7_7" result="effect2_dropShadow_7_7"/>
<feColorMatrix in="SourceAlpha" type="matrix" values="0 0 0 0 0 0 0 0 0 0 0 0 0 0 0 0 0 0 127 0" result="hardAlpha"/>
<feOffset dx="3" dy="2"/>
<feGaussianBlur stdDeviation="2"/>
<feComposite in2="hardAlpha" operator="out"/>
<feColorMatrix type="matrix" values="0 0 0 0 0 0 0 0 0 0 0 0 0 0 0 0 0 0 0.25 0"/>
<feBlend mode="normal" in2="effect2_dropShadow_7_7" result="effect3_dropShadow_7_7"/>
<feColorMatrix in="SourceAlpha" type="matrix" values="0 0 0 0 0 0 0 0 0 0 0 0 0 0 0 0 0 0 127 0" result="hardAlpha"/>
<feOffset dy="4"/>
<feGaussianBlur stdDeviation="2"/>
<feComposite in2="hardAlpha" operator="out"/>
<feColorMatrix type="matrix" values="0 0 0 0 0 0 0 0 0 0 0 0 0 0 0 0 0 0 0.25 0"/>
<feBlend mode="normal" in2="effect3_dropShadow_7_7" result="effect4_dropShadow_7_7"/>
<feBlend mode="normal" in="SourceGraphic" in2="effect4_dropShadow_7_7" result="shape"/>
</filter>
<filter id="filter1_i_7_7" x="50.6992" y="60.48" width="108.826" height="89.44" filterUnits="userSpaceOnUse" 
color-interpolation-filters="sRGB">
<feFlood flood-opacity="0" result="BackgroundImageFix"/>
<feBlend mode="normal" in="SourceGraphic" in2="BackgroundImageFix" result="shape"/>
<feColorMatrix in="SourceAlpha" type="matrix" values="0 0 0 0 0 0 0 0 0 0 0 0 0 0 0 0 0 0 127 0" result="hardAlpha"/>
<feOffset dx="-3" dy="1"/>
<feGaussianBlur stdDeviation="2"/>
<feComposite in2="hardAlpha" operator="arithmetic" k2="-1" k3="1"/>
<feColorMatrix type="matrix" values="0 0 0 0 0 0 0 0 0 0 0 0 0 0 0 0 0 0 0.25 0"/>
<feBlend mode="normal" in2="shape" result="effect1_innerShadow_7_7"/>
</filter>
</defs>
</svg>

